# xmcd CD database file
# Copyright (C) 1993-1998 Ti Kan
#
# Track frame offsets:
#	150
#	11857
#	23032
#	34910
#	48470
#	59832
#	73592
#	88045
#	98015
#	111445
#	124650
#	135972
#	148685
#	160040
#	172125
#	182485
#	192910
#	203422
#	217020
#	227517
#	240040
#	252387
#
# Disc length: 3537 seconds
#
# Revision: 1
# Processed by: cddbd v1.4b41PL1 Copyright (c) Steve Scherf et al.
# Submitted via: NotifyCDPlayer(CDDB) 1.51.2
#
DISCID=320dcf16
DTITLE=Muddy Waters - One More Mile - Disc 1
DYEAR=1900
DGENRE=
TTITLE0=Hard Days
TTITLE1=Muddy Jumps One
TTITLE2=Burying Ground
TTITLE3=You Gonna Need My Help
TTITLE4=Rollin' and Tumbin', Part 2
TTITLE5=Rollin' Stone (alternate take)
TTITLE6=Country Boy
TTITLE7=She's So Pretty
TTITLE8=Oh Yeah
TTITLE9=I Don't Know Why
TTITLE10=I Want to be Loved
TTITLE11=I Got to Find My Baby
TTITLE12=Crawlin' Kingsnake (alternate take)
TTITLE13=Read Way Back (undubbed alternate)
TTITLE14=Tiger in Your Tank
TTITLE15=Meanest Woman
TTITLE16=I Got My Brand On You
TTITLE17=Lonesome Room Blues
TTITLE18=Messin' With the Man
TTITLE19=Five Long Years
TTITLE20=You Don't Have to Go
TTITLE21=Elevate Me Mama
EXTD=
EXTT0=
EXTT1=
EXTT2=
EXTT3=
EXTT4=
EXTT5=
EXTT6=
EXTT7=
EXTT8=
EXTT9=
EXTT10=
EXTT11=
EXTT12=
EXTT13=
EXTT14=
EXTT15=
EXTT16=
EXTT17=
EXTT18=
EXTT19=
EXTT20=
EXTT21=
PLAYORDER=
